<svg width="267" height="448" viewBox="0 0 267 448" fill="none" xmlns="http://www.w3.org/2000/svg">
<g clip-path="url(#clip0_477_208)">
<path d="M0 144H267V428C267 439.046 258.046 448 247 448H20C8.9543 448 0 439.046 0 428V144Z" fill="#80A1E5"/>
<path d="M267 144L0 144L-5.24537e-07 138C-4.38712e-06 93.8172 35.8172 58 80 58L187 58C231.183 58 267 93.8172 267 138L267 144Z" fill="#8B919D"/>
<path d="M267 144L178 144L178 58L187 58C231.183 58 267 93.8172 267 138L267 144Z" fill="#A9ADB3"/>
<path d="M178 144H267V428C267 439.046 258.046 448 247 448H178V144Z" fill="#B7CCF9"/>
<rect x="123" width="39" height="101" fill="#8A919D"/>
<path d="M139.516 320.125C134.47 320.125 130.182 318.339 126.65 314.766C123.119 311.193 121.353 306.854 121.353 301.75H133.461C133.461 303.485 134.043 304.941 135.205 306.117C136.367 307.293 137.804 307.879 139.516 307.875C141.227 307.871 142.666 307.283 143.832 306.111C144.999 304.939 145.578 303.485 145.57 301.75C145.562 300.015 144.981 298.561 143.826 297.389C142.672 296.217 141.235 295.629 139.516 295.625H82V283.375H139.516C144.561 283.375 148.849 285.161 152.381 288.734C155.913 292.307 157.678 296.646 157.678 301.75C157.678 306.854 155.913 311.193 152.381 314.766C148.849 318.339 144.561 320.125 139.516 320.125ZM82 258.875V246.625H163.733C166.356 246.625 168.526 245.757 170.241 244.022C171.956 242.286 172.814 240.092 172.814 237.438C172.814 234.783 171.956 232.589 170.241 230.853C168.526 229.118 166.356 228.25 163.733 228.25C161.109 228.25 158.94 229.118 157.224 230.853C155.509 232.589 154.651 234.783 154.651 237.438H142.543C142.543 231.415 144.587 226.335 148.676 222.199C152.764 218.062 157.783 215.996 163.733 216C169.682 216.004 174.703 218.072 178.796 222.205C182.888 226.337 184.931 231.415 184.923 237.438C184.915 243.46 182.872 248.54 178.796 252.677C174.719 256.813 169.698 258.879 163.733 258.875H82ZM181.895 307.875V295.625C184.519 295.625 186.688 294.757 188.404 293.022C190.119 291.286 190.977 289.092 190.977 286.438C190.977 283.783 190.119 281.589 188.404 279.853C186.688 278.118 184.519 277.25 181.895 277.25H82V265H181.895C187.849 265 192.87 267.068 196.959 271.205C201.047 275.341 203.089 280.419 203.085 286.438C203.081 292.456 201.039 297.536 196.959 301.677C192.878 305.817 187.857 307.883 181.895 307.875Z" fill="#D1D1D1"/>
<rect x="191" width="30" height="99" rx="8" transform="rotate(90 191 0)" fill="#8A919D"/>
<path d="M181.896 265C187.849 265 192.87 267.069 196.959 271.205C201.047 275.341 203.09 280.419 203.086 286.438C203.082 292.456 201.039 297.536 196.959 301.677C192.878 305.817 187.857 307.883 181.896 307.875V295.625C184.519 295.625 186.689 294.757 188.404 293.021C190.119 291.286 190.977 289.091 190.977 286.438C190.977 283.784 190.119 281.589 188.404 279.854C186.689 278.118 184.519 277.25 181.896 277.25H178V265H181.896ZM178 221.438C178.269 221.685 178.534 221.941 178.796 222.205C182.888 226.337 184.931 231.415 184.923 237.438C184.915 243.46 182.872 248.54 178.796 252.677C178.535 252.942 178.269 253.197 178 253.445V221.438Z" fill="white"/>
</g>
<defs>
<clipPath id="clip0_477_208">
<rect width="267" height="448" fill="white"/>
</clipPath>
</defs>
</svg>
