<svg width="456" height="455" viewBox="0 0 456 455" fill="none" xmlns="http://www.w3.org/2000/svg">
<rect width="456" height="455" rx="50" fill="#0A0183"/>
<path d="M84.9342 21.9618H80.1342V19.5618H92.1342V21.9618H87.3342V36.3618H84.9342V21.9618ZM95.9765 36.3618H93.5765V24.3618H103.177V26.7618H95.9765V29.1618H103.177V31.5618H95.9765V36.3618ZM105.576 29.1618H103.177V26.7618H105.576V29.1618ZM116.619 26.7618H109.419V24.3618H116.619V26.7618ZM109.419 33.9618H107.019V26.7618H109.419V29.1618H116.619V26.7618H119.019V31.5618H109.419V33.9618ZM116.619 36.3618H109.419V33.9618H116.619V36.3618ZM122.861 36.3618H120.461V24.3618H122.861V29.1618H130.061V24.3618H132.461V36.3618H130.061V31.5618H122.861V36.3618ZM136.304 33.9618H133.904V24.3618H136.304V33.9618ZM141.104 31.5618H143.504V24.3618H145.904V36.3618H143.504V33.9618H141.104V31.5618ZM141.104 36.3618H136.304V33.9618H141.104V36.3618ZM149.746 36.3618H147.346V24.3618H156.946V26.7618H149.746V29.1618H156.946V31.5618H149.746V36.3618ZM159.346 29.1618H156.946V26.7618H159.346V29.1618ZM170.388 26.7618H163.188V24.3618H170.388V26.7618ZM163.188 33.9618H160.788V26.7618H163.188V33.9618ZM172.788 33.9618H170.388V26.7618H172.788V33.9618ZM170.388 36.3618H163.188V33.9618H170.388V36.3618ZM181.431 21.9618H176.631V19.5618H181.431V21.9618ZM176.631 33.9618H174.231V21.9618H176.631V26.7618H181.431V29.1618H176.631V33.9618ZM183.831 26.7618H181.431V21.9618H183.831V26.7618ZM183.831 31.5618H181.431V29.1618H183.831V31.5618ZM186.231 33.9618H183.831V31.5618H186.231V33.9618ZM183.831 36.3618H176.631V33.9618H183.831V36.3618ZM190.073 36.3618H187.673V19.5618H190.073V29.1618H192.473V31.5618H190.073V36.3618ZM197.273 26.7618H194.873V24.3618H197.273V26.7618ZM194.873 29.1618H192.473V26.7618H194.873V29.1618ZM194.873 33.9618H192.473V31.5618H194.873V33.9618ZM197.273 36.3618H194.873V33.9618H197.273V36.3618ZM210.715 26.7618H203.515V24.3618H210.715V26.7618ZM203.515 29.1618H210.715V26.7618H213.115V36.3618H203.515V33.9618H210.715V31.5618H203.515V29.1618ZM203.515 33.9618H201.115V31.5618H203.515V33.9618ZM230.4 36.3618H228V19.5618H230.4V29.1618H232.8V31.5618H230.4V36.3618ZM237.6 26.7618H235.2V24.3618H237.6V26.7618ZM235.2 29.1618H232.8V26.7618H235.2V29.1618ZM235.2 33.9618H232.8V31.5618H235.2V33.9618ZM237.6 36.3618H235.2V33.9618H237.6V36.3618ZM251.042 26.7618H243.842V24.3618H251.042V26.7618ZM243.842 33.9618H241.442V26.7618H243.842V33.9618ZM253.442 33.9618H251.042V26.7618H253.442V33.9618ZM251.042 36.3618H243.842V33.9618H251.042V36.3618ZM264.485 26.7618H257.285V24.3618H264.485V26.7618ZM257.285 33.9618H254.885V26.7618H257.285V33.9618ZM266.885 33.9618H264.485V31.5618H266.885V33.9618ZM264.485 36.3618H257.285V33.9618H264.485V36.3618ZM270.727 36.3618H268.327V24.3618H270.727V26.7618H273.127V29.1618H270.727V36.3618ZM275.527 26.7618H277.927V24.3618H280.327V36.3618H277.927V29.1618H275.527V26.7618ZM275.527 31.5618H273.127V29.1618H275.527V31.5618ZM284.169 33.9618H281.769V24.3618H284.169V33.9618ZM288.969 31.5618H291.369V24.3618H293.769V36.3618H291.369V33.9618H288.969V31.5618ZM288.969 36.3618H284.169V33.9618H288.969V36.3618ZM297.612 29.1618H295.212V24.3618H297.612V29.1618ZM297.612 29.1618H304.812V24.3618H307.212V36.3618H304.812V31.5618H297.612V29.1618ZM318.254 26.7618H311.054V24.3618H318.254V26.7618ZM311.054 33.9618H308.654V26.7618H311.054V29.1618H318.254V26.7618H320.654V31.5618H311.054V33.9618ZM318.254 36.3618H311.054V33.9618H318.254V36.3618ZM331.696 26.7618H324.496V24.3618H331.696V26.7618ZM324.496 33.9618H322.096V26.7618H324.496V33.9618ZM334.096 33.9618H331.696V31.5618H334.096V33.9618ZM331.696 36.3618H324.496V33.9618H331.696V36.3618ZM337.939 36.3618H335.539V19.5618H337.939V29.1618H340.339V31.5618H337.939V36.3618ZM345.139 26.7618H342.739V24.3618H345.139V26.7618ZM342.739 29.1618H340.339V26.7618H342.739V29.1618ZM342.739 33.9618H340.339V31.5618H342.739V33.9618ZM345.139 36.3618H342.739V33.9618H345.139V36.3618ZM351.381 33.9618H348.981V24.3618H351.381V33.9618ZM356.181 31.5618H358.581V24.3618H360.981V36.3618H358.581V33.9618H356.181V31.5618ZM356.181 36.3618H351.381V33.9618H356.181V36.3618ZM364.823 26.7618H362.423V24.3618H364.823V26.7618ZM374.423 26.7618H372.023V24.3618H374.423V26.7618ZM367.223 29.1618H364.823V26.7618H367.223V29.1618ZM372.023 29.1618H369.623V26.7618H372.023V29.1618ZM369.623 31.5618H367.223V29.1618H369.623V31.5618ZM367.223 33.9618H364.823V31.5618H367.223V33.9618ZM372.023 33.9618H369.623V31.5618H372.023V33.9618ZM364.823 36.3618H362.423V33.9618H364.823V36.3618ZM374.423 36.3618H372.023V33.9618H374.423V36.3618ZM182.872 61.3618H180.472V49.3618H182.872V51.7618H185.272V54.1618H182.872V61.3618ZM190.072 51.7618H185.272V49.3618H190.072V51.7618ZM192.472 61.3618H190.072V51.7618H192.472V61.3618ZM203.514 51.7618H196.314V49.3618H203.514V51.7618ZM196.314 58.9618H193.914V51.7618H196.314V58.9618ZM205.914 58.9618H203.514V51.7618H205.914V58.9618ZM203.514 61.3618H196.314V58.9618H203.514V61.3618ZM214.556 51.7618H212.156V49.3618H214.556V51.7618ZM212.156 54.1618H209.756V51.7618H212.156V54.1618ZM216.956 54.1618H214.556V51.7618H216.956V54.1618ZM209.756 61.3618H207.356V54.1618H209.756V61.3618ZM219.356 61.3618H216.956V54.1618H219.356V61.3618ZM230.399 51.7618H223.199V49.3618H230.399V51.7618ZM223.199 58.9618H220.799V51.7618H223.199V54.1618H230.399V51.7618H232.799V56.5618H223.199V58.9618ZM230.399 61.3618H223.199V58.9618H230.399V61.3618ZM239.041 51.7618H234.241V49.3618H246.241V51.7618H241.441V61.3618H239.041V51.7618ZM257.283 51.7618H250.083V49.3618H257.283V51.7618ZM250.083 58.9618H247.683V51.7618H250.083V58.9618ZM259.683 58.9618H257.283V51.7618H259.683V58.9618ZM257.283 61.3618H250.083V58.9618H257.283V61.3618ZM268.326 46.9618H263.526V44.5618H268.326V46.9618ZM263.526 58.9618H261.126V46.9618H263.526V51.7618H268.326V54.1618H263.526V58.9618ZM270.726 51.7618H268.326V46.9618H270.726V51.7618ZM270.726 56.5618H268.326V54.1618H270.726V56.5618ZM273.126 58.9618H270.726V56.5618H273.126V58.9618ZM270.726 61.3618H263.526V58.9618H270.726V61.3618Z" fill="#CCFFCE"/>
</svg>
