<svg width="1367" height="1369" viewBox="0 0 1367 1369" fill="none" xmlns="http://www.w3.org/2000/svg">
<g clip-path="url(#clip0_477_15)">
<path d="M1371.81 0H-0.408203V1372.7H1371.81V0Z" fill="#FFD58C"/>
<path d="M124.327 124.779H-0.408203V249.558H124.327V124.779Z" fill="#FFD58C"/>
<path d="M124.327 249.592H-0.408203V374.371H124.327V249.592Z" fill="#FFD58C"/>
<path d="M124.327 374.371H-0.408203V499.15H124.327V374.371Z" fill="#FFD58C"/>
<path d="M124.327 499.15H-0.408203V623.929H124.327V499.15Z" fill="#FFD58C"/>
<path d="M124.327 623.963H-0.408203V748.742H124.327V623.963Z" fill="#FFD58C"/>
<path d="M124.327 748.742H-0.408203V873.521H124.327V748.742Z" fill="#FFD58C"/>
<path d="M124.327 873.555H-0.408203V998.334H124.327V873.555Z" fill="#FFD58C"/>
<path d="M124.327 998.334H-0.408203V1123.11H124.327V998.334Z" fill="#FFD58C"/>
<path d="M124.327 1123.11H-0.408203V1247.89H124.327V1123.11Z" fill="#FFD58C"/>
<path d="M124.327 1247.93H-0.408203V1372.7H124.327V1247.93Z" fill="#FFD58C"/>
<path d="M249.096 0H124.361V124.779H249.096V0Z" fill="#FFD58C"/>
<path d="M249.096 124.779H124.361V249.558H249.096V124.779Z" fill="#FFD58C"/>
<path d="M249.096 249.592H124.361V374.371H249.096V249.592Z" fill="#FFD58C"/>
<path d="M249.096 374.371H124.361V499.15H249.096V374.371Z" fill="#FFD58C"/>
<path d="M249.096 499.15H124.361V623.929H249.096V499.15Z" fill="#FFD58C"/>
<path d="M249.096 623.963H124.361V748.742H249.096V623.963Z" fill="#FFD58C"/>
<path d="M249.096 748.742H124.361V873.521H249.096V748.742Z" fill="#FFD58C"/>
<path d="M249.096 873.555H124.361V998.334H249.096V873.555Z" fill="#FFD58C"/>
<path d="M249.096 998.334H124.361V1123.11H249.096V998.334Z" fill="#FFD58C"/>
<path d="M249.096 1123.11H124.361V1247.89H249.096V1123.11Z" fill="#FFD58C"/>
<path d="M249.096 1247.93H124.361V1372.7H249.096V1247.93Z" fill="#FFD58C"/>
<path d="M373.831 0H249.096V124.779H373.831V0Z" fill="#FFD58C"/>
<path d="M373.831 124.779H249.096V249.558H373.831V124.779Z" fill="#FFD58C"/>
<path d="M373.831 249.592H249.096V374.371H373.831V249.592Z" fill="#FFD58C"/>
<path d="M373.831 374.371H249.096V499.15H373.831V374.371Z" fill="#FFD58C"/>
<path d="M373.831 499.15H249.096V623.929H373.831V499.15Z" fill="#FFD58C"/>
<path d="M373.831 623.963H249.096V748.742H373.831V623.963Z" fill="#FFD58C"/>
<path d="M373.831 748.742H249.096V873.521H373.831V748.742Z" fill="#FFD58C"/>
<path d="M373.831 873.555H249.096V998.334H373.831V873.555Z" fill="#FFD58C"/>
<path d="M373.831 998.334H249.096V1123.11H373.831V998.334Z" fill="#FFD58C"/>
<path d="M373.831 1123.11H249.096V1247.89H373.831V1123.11Z" fill="#FFD58C"/>
<path d="M373.831 1247.93H249.096V1372.7H373.831V1247.93Z" fill="#FFD58C"/>
<path d="M997.574 0H872.839V124.779H997.574V0Z" fill="#FFD58C"/>
<path d="M997.574 124.779H872.839V249.558H997.574V124.779Z" fill="#FFD58C"/>
<path d="M997.574 249.592H872.839V374.371H997.574V249.592Z" fill="#FFD58C"/>
<path d="M997.574 374.371H872.839V499.15H997.574V374.371Z" fill="#FFD58C"/>
<path d="M997.574 499.15H872.839V623.929H997.574V499.15Z" fill="#FFD58C"/>
<path d="M997.574 623.963H872.839V748.742H997.574V623.963Z" fill="#FFD58C"/>
<path d="M997.574 748.742H872.839V873.521H997.574V748.742Z" fill="#FFD58C"/>
<path d="M997.574 873.555H872.839V998.334H997.574V873.555Z" fill="#FFD58C"/>
<path d="M997.574 998.334H872.839V1123.11H997.574V998.334Z" fill="#FFD58C"/>
<path d="M997.574 1123.11H872.839V1247.89H997.574V1123.11Z" fill="#FFD58C"/>
<path d="M997.574 1247.93H872.839V1372.7H997.574V1247.93Z" fill="#FFD58C"/>
<path d="M1122.31 0H997.574V124.779H1122.31V0Z" fill="#FFD58C"/>
<path d="M1122.31 124.779H997.574V249.558H1122.31V124.779Z" fill="#FFD58C"/>
<path d="M1122.31 249.592H997.574V374.371H1122.31V249.592Z" fill="#FFD58C"/>
<path d="M1122.31 374.371H997.574V499.15H1122.31V374.371Z" fill="#FFD58C"/>
<path d="M1122.31 499.15H997.574V623.929H1122.31V499.15Z" fill="#FFD58C"/>
<path d="M1122.31 623.963H997.574V748.742H1122.31V623.963Z" fill="#FFD58C"/>
<path d="M1122.31 748.742H997.574V873.521H1122.31V748.742Z" fill="#FFD58C"/>
<path d="M1122.31 873.555H997.574V998.334H1122.31V873.555Z" fill="#FFD58C"/>
<path d="M1122.31 998.334H997.574V1123.11H1122.31V998.334Z" fill="#FFD58C"/>
<path d="M1122.31 1123.11H997.574V1247.89H1122.31V1123.11Z" fill="#FFD58C"/>
<path d="M1122.31 1247.93H997.574V1372.7H1122.31V1247.93Z" fill="#FFD58C"/>
<path d="M1247.08 0H1122.34V124.779H1247.08V0Z" fill="#FFD58C"/>
<path d="M1247.08 124.779H1122.34V249.558H1247.08V124.779Z" fill="#FFD58C"/>
<path d="M1247.08 249.592H1122.34V374.371H1247.08V249.592Z" fill="#FFD58C"/>
<path d="M1247.08 374.371H1122.34V499.15H1247.08V374.371Z" fill="#FFD58C"/>
<path d="M1247.08 499.15H1122.34V623.929H1247.08V499.15Z" fill="#FFD58C"/>
<path d="M1247.08 623.963H1122.34V748.742H1247.08V623.963Z" fill="#FFD58C"/>
<path d="M1247.08 748.742H1122.34V873.521H1247.08V748.742Z" fill="#FFD58C"/>
<path d="M1247.08 873.555H1122.34V998.334H1247.08V873.555Z" fill="#FFD58C"/>
<path d="M1247.08 998.334H1122.34V1123.11H1247.08V998.334Z" fill="#FFD58C"/>
<path d="M1247.08 1123.11H1122.34V1247.89H1247.08V1123.11Z" fill="#FFD58C"/>
<path d="M1247.08 1247.93H1122.34V1372.7H1247.08V1247.93Z" fill="#FFD58C"/>
<path d="M1371.81 0H1247.08V124.779H1371.81V0Z" fill="#FFD58C"/>
<path d="M1371.81 124.779H1247.08V249.558H1371.81V124.779Z" fill="#FFD58C"/>
<path d="M1371.81 249.592H1247.08V374.371H1371.81V249.592Z" fill="#FFD58C"/>
<path d="M1371.81 374.371H1247.08V499.15H1371.81V374.371Z" fill="#FFD58C"/>
<path d="M1371.81 499.15H1247.08V623.929H1371.81V499.15Z" fill="#FFD58C"/>
<path d="M1371.81 623.963H1247.08V748.742H1371.81V623.963Z" fill="#FFD58C"/>
<path d="M1371.81 748.742H1247.08V873.521H1371.81V748.742Z" fill="#FFD58C"/>
<path d="M1371.81 873.555H1247.08V998.334H1371.81V873.555Z" fill="#FFD58C"/>
<path d="M1371.81 998.334H1247.08V1123.11H1371.81V998.334Z" fill="#FFD58C"/>
<path d="M1371.81 1123.11H1247.08V1247.89H1371.81V1123.11Z" fill="#FFD58C"/>
<path d="M1371.81 1247.93H1247.08V1372.7H1371.81V1247.93Z" fill="#FFD58C"/>
<path d="M0.243606 1254.45L88.0314 1294.43L199.662 1315.36L244.979 1352.18L440.281 1340.14L514.278 1383L-6 1381.94L0.243606 1254.45Z" fill="#EB7A75"/>
<path d="M94.4123 1381.28L152.32 1230.29L88.649 1205.61L21.2729 1381.28H94.4123Z" fill="#7037B3"/>
<path d="M152.423 1230.32L132.937 1186.15L88.752 1205.61L108.237 1249.81L152.423 1230.32Z" fill="#9367C9"/>
<path d="M57.3965 1381.28L108.134 1249.78L88.6488 1205.61L20.7925 1381.28H57.3965Z" fill="#8448C5"/>
<path d="M136.848 1381.28L171.497 1289.21L134.962 1275L94.9956 1381.28H136.848Z" fill="#7037B3"/>
<path d="M171.6 1289.21L160.416 1263.88L135.099 1275.04L146.248 1300.4L171.6 1289.21Z" fill="#9367C9"/>
<path d="M115.613 1381.28L146.145 1300.36L134.962 1275L94.7212 1381.28H115.613Z" fill="#8448C5"/>
<path d="M241.926 1381.28L272.012 1301.32L240.314 1289.04L205.597 1381.28H241.926Z" fill="#7037B3"/>
<path d="M272.081 1301.36L262.406 1279.36L240.382 1289.04L250.091 1310.93L272.081 1301.36Z" fill="#9367C9"/>
<path d="M223.504 1381.28L250.022 1311.04L240.314 1289.04L205.356 1381.28H223.504Z" fill="#8448C5"/>
<path d="M-1.09424 1337.53L56.7792 1331.52L130.193 1364.26L214.688 1349.95L255.923 1382.14H-1.09424V1337.53Z" fill="#CF576E"/>
<path d="M952.05 1379.74L1068.96 1306.54L1177.88 1312.31L1236.72 1183.44L1375.45 1101.63V1379.74H952.05Z" fill="#EB7A75"/>
<path d="M1315.38 1305.34L1257.47 1154.38L1321.14 1129.67L1388.52 1305.34H1315.38Z" fill="#7037B3"/>
<path d="M1257.4 1154.41L1277.03 1110.21L1321.21 1129.67L1301.76 1173.9L1257.4 1154.41Z" fill="#9367C9"/>
<path d="M1352.4 1305.34L1301.66 1173.87L1321.14 1129.67L1389 1305.34H1352.4Z" fill="#8448C5"/>
<path d="M1272.94 1305.34L1238.3 1213.27L1274.83 1199.06L1314.83 1305.34H1272.94Z" fill="#7037B3"/>
<path d="M1238.23 1213.3L1249.38 1187.94L1274.73 1199.09L1263.54 1224.49L1238.23 1213.3Z" fill="#9367C9"/>
<path d="M1294.21 1305.34L1263.65 1224.45L1274.83 1199.06L1315.07 1305.34H1294.21Z" fill="#8448C5"/>
<path d="M1182.03 1369.48L1144.02 1268.45L1184.09 1252.9L1227.97 1369.48H1182.03Z" fill="#7037B3"/>
<path d="M1143.92 1268.48L1156.17 1240.68L1183.99 1252.94L1171.74 1280.77L1143.92 1268.48Z" fill="#9367C9"/>
<path d="M1205.36 1369.48L1171.85 1280.73L1184.09 1252.9L1228.24 1369.48H1205.36Z" fill="#8448C5"/>
<path d="M1123.13 1379.74L1101.97 1325.14L1142.03 1309.56L1169.07 1379.74H1123.13Z" fill="#7037B3"/>
<path d="M1101.86 1325.17L1114.11 1297.38L1141.93 1309.59L1129.68 1337.43L1101.86 1325.17Z" fill="#9367C9"/>
<path d="M1146.46 1379.74L1129.79 1337.39L1142.03 1309.56L1169.34 1379.74H1146.46Z" fill="#8448C5"/>
<path d="M952.05 1379.74L1068.96 1306.54L1109.72 1355.37L1235.07 1343.16L1245.09 1261.52L1294.76 1236.39L1332.6 1280.56L1375.45 1155.41V1379.74H952.05Z" fill="#CF576E"/>
<path d="M111.016 102.953L125.184 0L203.367 37.5435L230.708 116.646L249.953 146.468V249.592H180.485L111.016 102.953Z" fill="#CF576E"/>
<path d="M0.449219 249.592V78.5187H40.964L68.7858 0H125.184L180.039 156.111L216.128 169.838L224.739 249.592H0.449219Z" fill="#EB7A75"/>
<path d="M0.449219 177.25L69.4719 142.349L144.258 54.2217L180.039 156.111L216.128 169.838L224.739 249.592H102.44L53.8972 180.545L0.449219 177.25Z" fill="#E35F6D"/>
<path d="M174.481 139.192L119.043 181.54L125.184 249.592H234.344L224.739 143.105L174.481 139.192Z" fill="#CF576E"/>
<path d="M154.172 84.2157L170.845 62.3896L200.108 73.3027L201.034 124.779L174.481 139.192L136.848 132.432L154.172 84.2157Z" fill="#8046BF"/>
<path d="M176.677 94.3737L170.845 62.3896L200.108 73.3027L201.034 124.779L174.482 139.192L176.677 94.3737Z" fill="#7037B3"/>
<path d="M170.845 62.3896L154.172 84.2157L176.677 94.3737L200.107 73.3027L170.845 62.3896Z" fill="#904ED6"/>
<path d="M89.9868 175.638L113.52 150.586L138.117 166.99L119.044 181.54L89.9868 175.638Z" fill="#7037B3"/>
<path d="M89.9868 175.638L113.52 150.586L120.896 167.093L119.044 181.54L89.9868 175.638Z" fill="#8046BF"/>
<path d="M1215.72 122.789C1264.47 122.789 1303.99 113.708 1303.99 102.507C1303.99 91.3055 1264.47 82.2251 1215.72 82.2251C1166.97 82.2251 1127.45 91.3055 1127.45 102.507C1127.45 113.708 1166.97 122.789 1215.72 122.789Z" fill="#E6AF57"/>
<path d="M1255.62 50.1724L1267.73 92.4517C1267.73 131.299 1120.46 131.299 1120.46 92.4517L1130.27 50.1724H1255.62Z" fill="#EB7A75"/>
<path d="M1192.94 78.8275C1227.56 78.8275 1255.62 65.9981 1255.62 50.1723C1255.62 34.3465 1227.56 21.5171 1192.94 21.5171C1158.33 21.5171 1130.27 34.3465 1130.27 50.1723C1130.27 65.9981 1158.33 78.8275 1192.94 78.8275Z" fill="#FF9D69"/>
<path d="M1193.97 69.356C1219.91 69.356 1240.94 59.9683 1240.94 48.388C1240.94 36.8076 1219.91 27.4199 1193.97 27.4199C1168.04 27.4199 1147.01 36.8076 1147.01 48.388C1147.01 59.9683 1168.04 69.356 1193.97 69.356Z" fill="#EB7A75"/>
<path d="M1236.37 57.3792C1228.79 64.4486 1212.67 69.3217 1193.97 69.3217C1175.28 69.3217 1158.78 64.3457 1151.33 57.139C1179.15 46.2946 1211.5 42.8972 1236.37 57.3792Z" fill="#5D76B0"/>
<path d="M1290.71 167.264C1333 167.264 1367.28 159.382 1367.28 149.659C1367.28 139.936 1333 132.054 1290.71 132.054C1248.43 132.054 1214.14 139.936 1214.14 149.659C1214.14 159.382 1248.43 167.264 1290.71 167.264Z" fill="#E6AF57"/>
<path d="M1325.29 104.257L1335.79 140.908C1335.79 174.608 1208.07 174.608 1208.07 140.908L1216.58 104.257H1325.29Z" fill="#EB7A75"/>
<path d="M1270.95 129.103C1300.97 129.103 1325.29 117.979 1325.29 104.257C1325.29 90.535 1300.97 79.4111 1270.95 79.4111C1240.94 79.4111 1216.61 90.535 1216.61 104.257C1216.61 117.979 1240.94 129.103 1270.95 129.103Z" fill="#FF9D69"/>
<path d="M1271.81 120.901C1294.3 120.901 1312.53 112.758 1312.53 102.713C1312.53 92.6676 1294.3 84.5244 1271.81 84.5244C1249.32 84.5244 1231.09 92.6676 1231.09 102.713C1231.09 112.758 1249.32 120.901 1271.81 120.901Z" fill="#EB7A75"/>
<path d="M1308.59 110.503C1302.04 116.646 1288 120.798 1271.81 120.798C1255.62 120.798 1241.28 116.474 1234.83 110.228C1258.98 100.894 1287.04 97.9768 1308.59 110.503Z" fill="#5D76B0"/>
<path d="M711.706 86.0342C716.922 86.037 722.021 87.5784 726.365 90.4656C730.71 93.3529 734.107 97.4577 736.131 102.266H687.314C689.344 97.4683 692.737 93.3722 697.073 90.4865C701.41 87.6008 706.498 86.0526 711.706 86.0342Z" fill="#FFBB80"/>
<path d="M586.937 119.254C592.173 119.243 597.296 120.777 601.665 123.665C606.034 126.552 609.455 130.664 611.499 135.486H562.545C564.56 130.677 567.95 126.571 572.289 123.683C576.629 120.796 581.725 119.255 586.937 119.254Z" fill="#FFBB80"/>
<path d="M786.869 325.125C792.071 325.094 797.166 326.598 801.518 329.449C805.87 332.341 809.281 336.445 811.329 341.254H762.444C764.484 336.451 767.882 332.348 772.221 329.449C776.572 326.598 781.668 325.094 786.869 325.125Z" fill="#FFBB80"/>
<path d="M248.444 642.872C253.66 642.875 258.759 644.416 263.104 647.304C267.448 650.191 270.845 654.296 272.87 659.104H224.053C226.082 654.306 229.476 650.21 233.812 647.324C238.148 644.439 243.236 642.89 248.444 642.872Z" fill="#FFBB80"/>
<path d="M207.62 499.15C212.833 499.178 217.925 500.728 222.269 503.611C226.62 506.496 230.021 510.604 232.046 515.416H183.195C185.225 510.609 188.622 506.505 192.965 503.613C197.307 500.721 202.404 499.169 207.62 499.15Z" fill="#FFBB80"/>
<path d="M131.634 564.799C136.856 564.832 141.957 566.382 146.316 569.261C150.656 572.143 154.056 576.235 156.093 581.032H107.208C109.231 576.237 112.619 572.143 116.951 569.261C121.306 566.375 126.409 564.825 131.634 564.799Z" fill="#FFBB80"/>
<path d="M1126.84 655.638C1132.05 655.632 1137.16 657.17 1141.5 660.058C1145.85 662.946 1149.25 667.056 1151.26 671.87H1102.45C1104.48 667.072 1107.87 662.976 1112.2 660.09C1116.54 657.205 1121.63 655.657 1126.84 655.638Z" fill="#FFBB80"/>
<path d="M1276.03 576.021C1281.25 576.017 1286.35 577.57 1290.68 580.483C1295.03 583.368 1298.43 587.475 1300.46 592.288H1251.61C1253.63 587.475 1257.03 583.368 1261.38 580.483C1265.73 577.6 1270.82 576.049 1276.03 576.021Z" fill="#FFBB80"/>
<path d="M699.219 1301.74C704.44 1301.71 709.551 1303.24 713.902 1306.13C718.235 1309.04 721.622 1313.15 723.644 1317.97H674.828C676.85 1313.16 680.241 1309.06 684.579 1306.18C688.917 1303.29 694.009 1301.75 699.219 1301.74Z" fill="#FFBB80"/>
<path d="M811.329 967.139C816.542 967.167 821.634 968.718 825.978 971.6C830.329 974.486 833.73 978.593 835.755 983.406H786.904C788.927 978.593 792.322 974.484 796.666 971.591C801.01 968.698 806.111 967.149 811.329 967.139Z" fill="#FFBB80"/>
<path d="M585.359 1121.6C590.58 1121.6 595.687 1123.14 600.038 1126.02C604.39 1128.91 607.792 1133.02 609.818 1137.83H560.967C562.982 1133.03 566.372 1128.92 570.711 1126.03C575.051 1123.14 580.146 1121.6 585.359 1121.6Z" fill="#FFBB80"/>
<path d="M1243.82 142.453C1249.04 142.486 1254.14 144.036 1258.5 146.914C1262.85 149.785 1266.25 153.881 1268.28 158.685H1219.43C1221.45 153.89 1224.84 149.797 1229.17 146.914C1233.52 144.035 1238.61 142.485 1243.82 142.453Z" fill="#FFBB80"/>
<path d="M1274.69 959.04C1279.91 959.049 1285.01 960.593 1289.36 963.479C1293.71 966.365 1297.12 970.466 1299.15 975.272H1250.3C1252.32 970.464 1255.71 966.357 1260.05 963.47C1264.39 960.582 1269.48 959.041 1274.69 959.04Z" fill="#FFBB80"/>
<path d="M723.61 895.278C728.832 895.274 733.938 896.812 738.29 899.7C742.641 902.587 746.043 906.696 748.07 911.51H699.219C701.248 906.712 704.642 902.616 708.978 899.73C713.314 896.844 718.402 895.296 723.61 895.278Z" fill="#FFBB80"/>
</g>
<defs>
<clipPath id="clip0_477_15">
<rect width="1367" height="1369" fill="white"/>
</clipPath>
</defs>
</svg>
